<mxfile host="app.diagrams.net" modified="2023-12-21T13:00:34.690Z" agent="Mozilla/5.0 (Windows NT 10.0; Win64; x64) AppleWebKit/537.36 (KHTML, like Gecko) Chrome/120.0.0.0 Safari/537.36" etag="xgvzXBdV0F8JPxc-D2No" version="22.1.11" type="github">
  <diagram id="C5RBs43oDa-KdzZeNtuy" name="Page-1">
    <mxGraphModel dx="1050" dy="530" grid="1" gridSize="10" guides="1" tooltips="1" connect="1" arrows="1" fold="1" page="1" pageScale="1" pageWidth="827" pageHeight="1169" math="0" shadow="0">
      <root>
        <mxCell id="WIyWlLk6GJQsqaUBKTNV-0" />
        <mxCell id="WIyWlLk6GJQsqaUBKTNV-1" parent="WIyWlLk6GJQsqaUBKTNV-0" />
        <mxCell id="GN7QJIceWhH6CcP1kG4I-2" value="" style="edgeStyle=orthogonalEdgeStyle;rounded=0;orthogonalLoop=1;jettySize=auto;html=1;" edge="1" parent="WIyWlLk6GJQsqaUBKTNV-1" source="GN7QJIceWhH6CcP1kG4I-0" target="GN7QJIceWhH6CcP1kG4I-1">
          <mxGeometry relative="1" as="geometry" />
        </mxCell>
        <mxCell id="GN7QJIceWhH6CcP1kG4I-0" value="НАЧАЛО" style="ellipse;whiteSpace=wrap;html=1;aspect=fixed;" vertex="1" parent="WIyWlLk6GJQsqaUBKTNV-1">
          <mxGeometry x="320" y="10" width="80" height="80" as="geometry" />
        </mxCell>
        <mxCell id="GN7QJIceWhH6CcP1kG4I-4" value="" style="edgeStyle=orthogonalEdgeStyle;rounded=0;orthogonalLoop=1;jettySize=auto;html=1;" edge="1" parent="WIyWlLk6GJQsqaUBKTNV-1" source="GN7QJIceWhH6CcP1kG4I-1" target="GN7QJIceWhH6CcP1kG4I-3">
          <mxGeometry relative="1" as="geometry" />
        </mxCell>
        <mxCell id="GN7QJIceWhH6CcP1kG4I-1" value="Объявление&lt;br&gt;A, B, C" style="rounded=1;whiteSpace=wrap;html=1;" vertex="1" parent="WIyWlLk6GJQsqaUBKTNV-1">
          <mxGeometry x="300" y="180" width="120" height="60" as="geometry" />
        </mxCell>
        <mxCell id="GN7QJIceWhH6CcP1kG4I-6" value="" style="edgeStyle=orthogonalEdgeStyle;rounded=0;orthogonalLoop=1;jettySize=auto;html=1;" edge="1" parent="WIyWlLk6GJQsqaUBKTNV-1" source="GN7QJIceWhH6CcP1kG4I-3">
          <mxGeometry relative="1" as="geometry">
            <mxPoint x="260" y="350" as="targetPoint" />
          </mxGeometry>
        </mxCell>
        <mxCell id="GN7QJIceWhH6CcP1kG4I-9" value="" style="edgeStyle=orthogonalEdgeStyle;rounded=0;orthogonalLoop=1;jettySize=auto;html=1;" edge="1" parent="WIyWlLk6GJQsqaUBKTNV-1" source="GN7QJIceWhH6CcP1kG4I-3">
          <mxGeometry relative="1" as="geometry">
            <mxPoint x="460" y="350" as="targetPoint" />
          </mxGeometry>
        </mxCell>
        <mxCell id="GN7QJIceWhH6CcP1kG4I-3" value="A &amp;gt; B" style="rhombus;whiteSpace=wrap;html=1;rounded=1;" vertex="1" parent="WIyWlLk6GJQsqaUBKTNV-1">
          <mxGeometry x="320" y="310" width="80" height="80" as="geometry" />
        </mxCell>
        <mxCell id="GN7QJIceWhH6CcP1kG4I-7" value="TRUE" style="text;html=1;align=center;verticalAlign=middle;resizable=0;points=[];autosize=1;strokeColor=none;fillColor=none;" vertex="1" parent="WIyWlLk6GJQsqaUBKTNV-1">
          <mxGeometry x="260" y="320" width="60" height="30" as="geometry" />
        </mxCell>
        <mxCell id="GN7QJIceWhH6CcP1kG4I-10" value="FALCE" style="text;html=1;align=center;verticalAlign=middle;resizable=0;points=[];autosize=1;strokeColor=none;fillColor=none;" vertex="1" parent="WIyWlLk6GJQsqaUBKTNV-1">
          <mxGeometry x="390" y="328" width="60" height="30" as="geometry" />
        </mxCell>
        <mxCell id="GN7QJIceWhH6CcP1kG4I-18" value="" style="edgeStyle=orthogonalEdgeStyle;rounded=0;orthogonalLoop=1;jettySize=auto;html=1;" edge="1" parent="WIyWlLk6GJQsqaUBKTNV-1" source="GN7QJIceWhH6CcP1kG4I-13" target="GN7QJIceWhH6CcP1kG4I-17">
          <mxGeometry relative="1" as="geometry">
            <Array as="points">
              <mxPoint x="220" y="470" />
              <mxPoint x="320" y="470" />
            </Array>
          </mxGeometry>
        </mxCell>
        <mxCell id="GN7QJIceWhH6CcP1kG4I-22" value="Falce" style="edgeLabel;html=1;align=center;verticalAlign=middle;resizable=0;points=[];" vertex="1" connectable="0" parent="GN7QJIceWhH6CcP1kG4I-18">
          <mxGeometry x="-0.1111" y="6" relative="1" as="geometry">
            <mxPoint x="31" y="-4" as="offset" />
          </mxGeometry>
        </mxCell>
        <mxCell id="GN7QJIceWhH6CcP1kG4I-20" value="" style="edgeStyle=orthogonalEdgeStyle;rounded=0;orthogonalLoop=1;jettySize=auto;html=1;" edge="1" parent="WIyWlLk6GJQsqaUBKTNV-1" source="GN7QJIceWhH6CcP1kG4I-13" target="GN7QJIceWhH6CcP1kG4I-19">
          <mxGeometry relative="1" as="geometry" />
        </mxCell>
        <mxCell id="GN7QJIceWhH6CcP1kG4I-13" value="A&amp;nbsp; &amp;gt; C" style="rhombus;whiteSpace=wrap;html=1;" vertex="1" parent="WIyWlLk6GJQsqaUBKTNV-1">
          <mxGeometry x="180" y="310" width="80" height="80" as="geometry" />
        </mxCell>
        <mxCell id="GN7QJIceWhH6CcP1kG4I-24" value="" style="edgeStyle=orthogonalEdgeStyle;rounded=0;orthogonalLoop=1;jettySize=auto;html=1;" edge="1" parent="WIyWlLk6GJQsqaUBKTNV-1" source="GN7QJIceWhH6CcP1kG4I-15" target="GN7QJIceWhH6CcP1kG4I-23">
          <mxGeometry relative="1" as="geometry" />
        </mxCell>
        <mxCell id="GN7QJIceWhH6CcP1kG4I-30" style="edgeStyle=orthogonalEdgeStyle;rounded=0;orthogonalLoop=1;jettySize=auto;html=1;exitX=0.5;exitY=1;exitDx=0;exitDy=0;entryX=0.75;entryY=0;entryDx=0;entryDy=0;" edge="1" parent="WIyWlLk6GJQsqaUBKTNV-1" source="GN7QJIceWhH6CcP1kG4I-15" target="GN7QJIceWhH6CcP1kG4I-17">
          <mxGeometry relative="1" as="geometry">
            <Array as="points">
              <mxPoint x="500" y="470" />
              <mxPoint x="390" y="470" />
            </Array>
          </mxGeometry>
        </mxCell>
        <mxCell id="GN7QJIceWhH6CcP1kG4I-15" value="B &amp;gt; C" style="rhombus;whiteSpace=wrap;html=1;" vertex="1" parent="WIyWlLk6GJQsqaUBKTNV-1">
          <mxGeometry x="460" y="310" width="80" height="80" as="geometry" />
        </mxCell>
        <mxCell id="GN7QJIceWhH6CcP1kG4I-36" style="edgeStyle=orthogonalEdgeStyle;rounded=0;orthogonalLoop=1;jettySize=auto;html=1;exitX=0.5;exitY=1;exitDx=0;exitDy=0;entryX=0.5;entryY=0;entryDx=0;entryDy=0;" edge="1" parent="WIyWlLk6GJQsqaUBKTNV-1" source="GN7QJIceWhH6CcP1kG4I-17" target="GN7QJIceWhH6CcP1kG4I-33">
          <mxGeometry relative="1" as="geometry" />
        </mxCell>
        <mxCell id="GN7QJIceWhH6CcP1kG4I-17" value="Вывод С" style="rounded=1;whiteSpace=wrap;html=1;" vertex="1" parent="WIyWlLk6GJQsqaUBKTNV-1">
          <mxGeometry x="300" y="490" width="120" height="60" as="geometry" />
        </mxCell>
        <mxCell id="GN7QJIceWhH6CcP1kG4I-34" style="edgeStyle=orthogonalEdgeStyle;rounded=0;orthogonalLoop=1;jettySize=auto;html=1;exitX=0.5;exitY=1;exitDx=0;exitDy=0;entryX=0;entryY=0.5;entryDx=0;entryDy=0;" edge="1" parent="WIyWlLk6GJQsqaUBKTNV-1" source="GN7QJIceWhH6CcP1kG4I-19" target="GN7QJIceWhH6CcP1kG4I-33">
          <mxGeometry relative="1" as="geometry" />
        </mxCell>
        <mxCell id="GN7QJIceWhH6CcP1kG4I-19" value="Вывод A" style="rounded=1;whiteSpace=wrap;html=1;" vertex="1" parent="WIyWlLk6GJQsqaUBKTNV-1">
          <mxGeometry y="320" width="120" height="60" as="geometry" />
        </mxCell>
        <mxCell id="GN7QJIceWhH6CcP1kG4I-21" value="TRUE" style="text;html=1;align=center;verticalAlign=middle;resizable=0;points=[];autosize=1;strokeColor=none;fillColor=none;" vertex="1" parent="WIyWlLk6GJQsqaUBKTNV-1">
          <mxGeometry x="120" y="328" width="60" height="30" as="geometry" />
        </mxCell>
        <mxCell id="GN7QJIceWhH6CcP1kG4I-35" style="edgeStyle=orthogonalEdgeStyle;rounded=0;orthogonalLoop=1;jettySize=auto;html=1;exitX=0.5;exitY=1;exitDx=0;exitDy=0;entryX=1;entryY=0.5;entryDx=0;entryDy=0;" edge="1" parent="WIyWlLk6GJQsqaUBKTNV-1" source="GN7QJIceWhH6CcP1kG4I-23" target="GN7QJIceWhH6CcP1kG4I-33">
          <mxGeometry relative="1" as="geometry" />
        </mxCell>
        <mxCell id="GN7QJIceWhH6CcP1kG4I-23" value="Вывод B" style="rounded=1;whiteSpace=wrap;html=1;" vertex="1" parent="WIyWlLk6GJQsqaUBKTNV-1">
          <mxGeometry x="600" y="320" width="120" height="60" as="geometry" />
        </mxCell>
        <mxCell id="GN7QJIceWhH6CcP1kG4I-31" value="Falce" style="edgeLabel;html=1;align=center;verticalAlign=middle;resizable=0;points=[];" vertex="1" connectable="0" parent="WIyWlLk6GJQsqaUBKTNV-1">
          <mxGeometry x="310" y="470" as="geometry">
            <mxPoint x="132" y="-12" as="offset" />
          </mxGeometry>
        </mxCell>
        <mxCell id="GN7QJIceWhH6CcP1kG4I-32" value="TRUE" style="text;html=1;align=center;verticalAlign=middle;resizable=0;points=[];autosize=1;strokeColor=none;fillColor=none;" vertex="1" parent="WIyWlLk6GJQsqaUBKTNV-1">
          <mxGeometry x="530" y="320" width="60" height="30" as="geometry" />
        </mxCell>
        <mxCell id="GN7QJIceWhH6CcP1kG4I-33" value="Конец" style="ellipse;whiteSpace=wrap;html=1;aspect=fixed;" vertex="1" parent="WIyWlLk6GJQsqaUBKTNV-1">
          <mxGeometry x="320" y="620" width="80" height="80" as="geometry" />
        </mxCell>
      </root>
    </mxGraphModel>
  </diagram>
</mxfile>
